<?xml version="1.0" encoding="utf-8"?>
<svg xmlns="http://www.w3.org/2000/svg" viewBox="0 0 500 500" xmlns:bx="https://boxy-svg.com" width="500px" height="500px"><defs><bx:export><bx:file format="svg" path="avatar4.svg"/></bx:export></defs><title>avatar, man, people, user, profile, businessman_10</title><g data-name="Man 17 copy" transform="matrix(6.810934, 0, 0, 5.589899, -89.983194, -29.4558)" style=""><g><circle class="cls-1" cx="59.678987" cy="39.295697" r="2.925" style="stroke-width: 0px;"/><circle class="cls-1" cx="40.568987" cy="39.295697" r="2.925" style="stroke-width: 0px;"/><path class="cls-1" d="M72.365412,49.100922c3.870228-.475923,6.176216-3.441704,6.263804-7.060752,4.408828-3.244922,7.042852-7.225283,7.821519-11.842061.97473-5.83076-3.976339-10.92736-9.834932-10.136953-2.283823.306973-4.341035.589189-6.227432.850078l-1.109443-7.991953c-.354961-2.504531-2.049404-4.599258-4.421777-5.466094-7.714486-2.817873-21.752091-2.817513-29.466709,0-2.371992.866836-4.066436,2.961562-4.421777,5.469902l-1.114395,8.027373-.139014-.019424c-1.911533-.265078-4.010068-.556055-6.332168-.869883-5.860321-.788413-10.80158,4.304018-9.835693,10.137715.785713,4.680381,3.466582,8.698828,7.962246,11.949844.185479,3.253682,2.320576,6.427764,6.371777,6.945352.671074,4.58707,2.771133,11.934229,9.260977,16.347246-.833701.717158-1.629316,1.554287-2.369707,2.518242-.014663.019043-.027993.039609-.042656.058652-8.961621.031992-16.242891,7.333066-16.242891,16.306875,0,3.887812.996709,5.834004,6.936592,7.091602.752578.131777,18.501006,3.243398,24.700254,3.243398s23.947676-3.111621,24.733008-3.250254c5.907129-1.250742,6.903838-3.196934,6.903838-7.084746,0-8.976094-7.284888-16.278691-16.249746-16.307256-.746104-.980332-1.545146-1.848311-2.395796-2.57918,6.479751-4.416826,8.579048-11.754463,9.250122-16.337725ZM36.059612,9.284359c7.287311-2.659292,20.84119-2.659653,28.128369,0,1.695586.620039,2.906338,2.117578,3.159609,3.905332l.497021,3.579316h-35.44125l.496641-3.575508c.253652-1.791562,1.464404-3.289102,3.159609-3.909141ZM15.471116,29.878188c-.751319-4.533491,3.098452-8.50596,7.651465-7.883789,30.935485,4.165369,22.814294,4.141606,53.752969,0,4.555101-.618181,8.409765,3.346734,7.652227,7.880742-.636987,3.776982-2.711147,7.095791-6.152021,9.890918-.687451-2.70334-2.744282-5.076855-6.02291-5.424961-.880831-3.426074-5.131153-6.97125-13.032627-6.97125h-18.392461c-2.192227,0-4.193643.26584-5.949404.789141-.00019,0-.00019.000762-.000381.000762-4.49395,1.342148-6.57249,4.182598-7.082842,6.177158-3.569414.336299-5.573496,2.807314-6.187632,5.49999-3.489814-2.799697-5.595776-6.140977-6.236382-9.958711ZM38.923674,66.506957c.336299.178242.680405.348105,1.029082.507305,0,4.175769.016181,8.145283,1.341768,13.305703-4.48481-.161104-8.067744-.780381-8.864502-1.550859-.278672-1.682354,1.938761-8.758095,6.493652-12.262148ZM50.121321,92.417582c-6.535928-5.886312-8.218564-15.828991-8.218564-24.624844,4.967274,1.674077,11.47538,1.674651,16.442461,0,0,8.75206-1.659609,18.669771-8.223896,24.624844ZM67.817571,78.768344c-.715825.676406-3.884004,1.376807-8.869072,1.552383,1.331774-5.151458,1.346719-9.246345,1.346719-13.306465.343345-.157295.68688-.326777,1.031938-.507305,4.625036,3.555265,6.751198,10.655481,6.490415,12.261387ZM50.123987,67.095004c-11.993496,0-18.989615-7.240881-20.411777-19.023926-.057891-.477598-.493975-.841699-.975-.857695-6.859396-.226641-6.916272-9.988964-.975762-10.88877v4.796543c0,.538535.436465.975.975.975,4.133086,0,7.495693-3.362988,7.495693-7.496074v-4.747412c1.408228-.346582,2.976987-.532822,4.695615-.532822h18.392461c1.726245,0,3.294814.187764,4.695615.537393v4.742842c0,4.133086,3.362607,7.496074,7.495693,7.496074.538535,0,.975-.436465.975-.975v-4.787021c5.615823.963511,5.929822,10.644613-.982617,10.878486-.493213,0-.90873.368672-.968145.858457-1.400503,11.601858-8.242921,19.023926-20.411777,19.023926Z" style="stroke-width: 0px;"/></g></g></svg>