<?xml version="1.0" encoding="utf-8"?>
<svg xmlns="http://www.w3.org/2000/svg" viewBox="0 0 500 500" xmlns:bx="https://boxy-svg.com" width="500px" height="500px"><defs><bx:export><bx:file format="svg" path="avatar1.svg"/></bx:export></defs><title>avatar, man, people, user, profile, businessman_10</title><g transform="matrix(7.70722, 0, 0, 5.432725, -135.410235, -22.337571)" style=""><path d="M43.464,37.962a3.133,3.133,0,1,0-3.134,3.134A3.13338,3.13338,0,0,0,43.464,37.962Z"/><path d="M59.672,41.096a3.133,3.133,0,1,0-3.134-3.134A3.13339,3.13339,0,0,0,59.672,41.096Z"/><path d="M82.45,77.07a7.01166,7.01166,0,0,0-6.56133-6.986l-14.81511-.93018q-.3214-.17431-.63752-.32617V67.45557c8.82635-4.03313,11.50762-12.94234,12.31914-18.00838a.58643.58643,0,0,1,.49248-.477,7.31537,7.31537,0,0,0,6.0583-7.17207V37.08a7.23,7.23,0,0,0-2.77808-5.68422C76.01279,18.26438,72.41064,4.8199,50.02764,4.20042c-.01836-.00059-.03692-.00059-.05528,0-10.08222.2791-17.041,3.11064-21.27422,8.65664-3.27076,4.28491-4.8882,10.01684-5.225,18.53452A7.2682,7.2682,0,0,0,20.694,37.08v4.71807a7.31569,7.31569,0,0,0,6.05928,7.17227.58545.58545,0,0,1,.49121.47558c.80662,5.04424,3.482,13.9689,12.31943,18.00845v1.37344q-.31389.151-.633.32573L24.11152,70.084A7.01164,7.01164,0,0,0,17.55,77.06985L17.54805,85.2c0,3.98311,1.02275,5.97784,7.08379,7.26817C24.95782,92.53776,43.94155,95.8,49.992,95.8h.016c5.788,0,23.88685-3.02291,25.36015-3.33183,6.061-1.29033,7.08379-3.28506,7.08379-7.26836ZM50,69.53a26.41241,26.41241,0,0,0,8.436-1.28286v.81265L50,77.49583l-8.436-8.436V68.246A26.39629,26.39629,0,0,0,50,69.53Zm2.4213,17.79227-.61319-2.82019a3.09007,3.09007,0,0,0,1.04564-1.31827L53.87423,84.206C53.403,85.23005,52.9108,86.28342,52.4213,87.32227Zm2.33655-5.062L51.4136,78.91057l6.81326-6.81313A41.40167,41.40167,0,0,1,54.75785,82.26023Zm-6.17134-3.34956-3.3452,3.35222a41.46027,41.46027,0,0,1-3.4684-10.16567Zm-1.43956,4.27392a3.0999,3.0999,0,0,0,1.04464,1.31709l-.613,2.821c-.50712-1.077-.99707-2.12368-1.45289-3.11475ZM60.36266,71.11316l.12557.00791a20.31009,20.31009,0,0,1,6.38589,6.12808.31154.31154,0,0,1-.17744.45263l-5.346,1.714a1.00077,1.00077,0,0,0-.20136,1.81445c1.39675.82059,2.76875,1.44528,2.76875,1.85615-.04263,1.03511-3.22593,6.97143-4.71444,9.865-3.21714.42371-5.76407.69-7.60686.79573C56.81877,82.65758,59.864,76.72112,60.36266,71.11316ZM29.21934,49.12883A2.595,2.595,0,0,0,27.10762,47.002,5.31706,5.31706,0,0,1,22.694,41.79807V37.08A5.285,5.285,0,0,1,25.019,32.73313a5.36127,5.36127,0,0,1,2.11787-.86387,2.59985,2.59985,0,0,0,2.10156-2.005A11.669,11.669,0,0,1,40.564,20.78206H59.436a11.66918,11.66918,0,0,1,11.32568,9.08261,2.59931,2.59931,0,0,0,2.1001,2.0044,5.33369,5.33369,0,0,1,1.9998.78711A5.2631,5.2631,0,0,1,77.306,37.08v4.71807a5.31674,5.31674,0,0,1-4.4126,5.20371,2.59557,2.59557,0,0,0-2.11279,2.128C68.98321,60.34868,62.09411,67.53,50,67.53,37.86,67.53,30.99923,60.26107,29.21934,49.12883ZM40.7962,92.951c-1.41014-2.74121-4.6715-8.82649-4.71417-9.86094,0-.41315,1.31545-1.0061,2.76865-1.85986a1.00078,1.00078,0,0,0-.20136-1.81445L33.305,77.70227a.31152.31152,0,0,1-.1793-.45283A20.10015,20.10015,0,0,1,39.519,71.12058l.1183-.00742c.49942,5.618,3.55243,11.567,8.76556,22.63367C47.24857,93.6802,45.00324,93.50554,40.7962,92.951Z"/></g></svg>