<?xml version="1.0" encoding="utf-8"?>
<svg xmlns="http://www.w3.org/2000/svg" viewBox="0 0 500 500" xmlns:bx="https://boxy-svg.com" width="500px" height="500px"><defs><bx:export><bx:file format="svg" path="avatar3.svg"/></bx:export></defs><title>avatar, man, people, user, profile, businessman_10</title><g data-name="Doctor Man 2" transform="matrix(7.901871, 0, 0, 5.595687, -145.838976, -29.245697)" style=""><g><circle class="cls-1" cx="59.543193" cy="39.310808" r="2.925" style="stroke-width: 0px;"/><circle class="cls-1" cx="40.433193" cy="39.310808" r="2.925" style="stroke-width: 0px;"/><path class="cls-1" d="M81.61666,84.158142c-.070879-7.654956-5.566077-14.302711-13.090898-15.802236-3.10602-1.601023-5.492168-1.306994-8.366338-1.2496,9.411606-4.03311,12.089048-13.425293,12.181406-18.65373.19481-.649365.002967-.098195,4.853672-13.010918.003428-.009141.003428-.019043.006665-.028184,2.203652-6.434238,1.682827-12.265576-1.554478-17.335195-5.224058-8.180288-16.22499-11.914805-18.860918-12.230918-4.415982-.975837-12.033949-.407616-15.135352.266602-9.167285,1.87002-15.584004,5.664521-19.071914,11.284863-4.176885,6.731499-2.600889,13.594585-2.431787,14.266992,1.244648,8.77938,6.937354,18.331523,7.785146,19.715757.517397,2.92481,2.817217,11.662866,11.885098,15.659414v.006665c-3.215821,0-5.379244-.218485-8.354531,1.303872-7.604238,1.504585-13.110703,8.203901-13.110703,15.988667,0,1.867163.15939,3.794312,1.945239,5.179497.265078,2.886724,2.697056,5.155503,5.651382,5.155503,1.841836,0,3.547134-.892544,4.602495-2.360376,4.444713.713816,14.904153,2.360376,19.437349,2.360376,4.107037,0,13.250989-1.386271,17.283398-2.017603.35915.420278.806279.758291,1.313203.968335.833073.346246,1.677908-.537571,1.2098-1.371094,2.865015-.466172,4.875762-.820562,4.926606-.830273,2.366279-.50083,3.935229-1.11687,4.97707-1.921245v.843032c0,.645937-.38543,1.22751-.982617,1.481924-1.186405.506504-.421167,2.301456.764766,1.793848,1.317012-.561387,2.167852-1.847168,2.167852-3.275771,0-6.179863-.031611-6.109564-.031611-6.188203ZM78.488091,78.675671c-1.062598-.770098-2.296392-1.251504-3.603501-1.397183-.263364-1.869448-.982617-3.637778-2.053975-5.163691,2.51291,1.551621,4.488999,3.851631,5.657476,6.560874ZM66.439033,90.81404c-1.881255.29269-3.570176.544058-5.104087.760195,1.583813-3.044286,4.176001-7.828976,4.174028-9.228223.057891-1.124678-.725918-1.827363-1.741289-2.451211l3.092578-.990996c1.379878-.441305,1.988986-2.050552,1.260645-3.286816-.900352-1.531055-2.909766-3.85125-5.3446-5.636719,2.556913,0,3.481156-.056885,5.082568.233848,2.683726,1.463071,4.54708,4.117471,5.042388,7.099219-3.653013.556436-6.494224,3.810117-6.494224,7.650703v5.382305c0,.156914.011426.313066.031992.467695ZM26.92335,83.40823v-4.43625c-.006855-3.657393,1.975327-6.997148,5.177212-8.756338,1.64486-.298014,2.546233-.235382,5.090376-.228896-2.430645,1.784707-4.43625,4.100903-5.335459,5.629482-.729655,1.240093-.116154,2.846991,1.259883,3.287578l3.092578.990615c-1.015371.621563-1.798418,1.315488-1.742051,2.40208,0,1.495126,2.624501,6.294033,4.17498,9.276782-2.538618-.357437-5.058955-.748579-7.215381-1.092876.130254-.481025.201475-.97957.201475-1.483447,0-2.797983-2.036074-5.124272-4.703613-5.58873ZM45.35123,81.490793c-1.195898-2.678013-2.107866-4.944126-2.71248-7.00229,1.883921,1.844312,4.265815,3.250825,5.699941,4.007212l-2.987461,2.995078ZM47.208491,82.390764c.234038.559863.631846,1.034414,1.134009,1.364429l-.681357,2.739712c-.516445-1.095352-.998613-2.125957-1.44917-3.107241l.996519-.996899ZM52.315244,86.494905l-.681357-2.739712c.502163-.330015.899971-.804565,1.134009-1.364429l.996519.996899c-.450557.981094-.932725,2.01208-1.44917,3.107241ZM54.624966,81.490603l-2.987461-2.994888c1.434697-.756958,3.817544-2.165186,5.702036-4.012925-.604805,2.059497-1.517534,4.327324-2.714575,7.007812ZM58.209424,69.020886c0,3.458965-5.598633,6.868418-8.22123,8.129063-2.622598-1.260645-8.22123-4.670098-8.22123-8.129063v-1.21856c5.006153,1.63821,11.420148,1.625872,16.442461.037896v1.180664ZM41.003149,91.894538c-1.151041-2.234041-4.544465-8.544277-4.588784-9.647549-.015662-.322047,1.645955-1.141858,2.701816-1.761094.725988-.425435.606232-1.512792-.195-1.769854l-5.210918-1.669307c-.183097-.058568-.271744-.275248-.174434-.441035.995566-1.69292,3.596836-4.477002,6.347402-6.04957.495875,5.804096,4.091373,12.672914,8.543437,22.115933-1.815747-.104927-4.338179-.369434-7.423521-.777524ZM60.093154,70.55613c2.750566,1.572568,5.351836,4.357031,6.347402,6.050332.096262.162814.011099.38105-.175195.440273l-5.210156,1.669307c-.801183.257046-.920943,1.344444-.195,1.769854.917569.538131,2.718123,1.421354,2.700293,1.807178-.041938,1.034008-3.35187,7.204449-4.58688,9.600703-3.15104.411328-5.642813.672979-7.423711.777715,4.891149-10.373035,8.067746-16.549738,8.543247-22.115361ZM71.353262,45.450261c-1.424795-3.249302-4.462148-9.369521-9.521865-15.8129-3.206836-4.087192-6.773203-7.712402-10.601411-10.80022l3.113716-5.765449c17.498394,11.199741,20.529463,20.424917,20.923652,21.95521l-3.914092,10.423359ZM74.0029,19.127927c2.409316,3.772031,3.127046,8.044512,2.157949,12.730225-1.909248-4.061104-7.094268-11.705713-20.888423-20.50604l1.864307-3.451919c2.722954.657935,12.213589,3.941895,16.866167,11.227734ZM40.42748,8.377981c-3.11562,8.747578-14.745542,18.333237-18.626309,21.349263-1.025327-9.062809,4.069303-17.870746,18.626309-21.349263ZM42.626943,7.927995c1.90582-.288691,7.870078-1.075547,12.494473-.402187l-5.990918,11.096338c-.005522.010283-.010664.020186-.015996.03085-2.252121,4.552484-6.073767,8.683898-6.27085,8.979521-3.706523,4.333799-8.00833,8.412041-10.963799,11.070439-2.480887,2.231252-3.888393,5.212919-4.209258,8.223135-1.912104-3.646729-4.622109-9.526245-5.514082-15.011572,2.90748-2.176992,17.506582-13.52127,20.47043-23.986523ZM29.549756,47.926609c.09199-2.827558,1.32784-5.699491,3.63416-7.774102,2.946709-2.6504,7.211953-6.697222,10.941709-11.025117,2.785034-.777524,9.398848-1.926577,16.295449,1.876494,6.331406,8.110972,9.372759,15.643799,9.972041,17.225127-.038747,9.388811-6.597358,18.849873-20.404922,18.849873-20.309348,0-20.416366-19.074262-20.438437-19.152275ZM20.662783,86.938034c-.26127-.600234-.361055-1.398135-.361055-2.597842,0-5.103325,2.69001-9.673638,6.825381-12.225205-1.38271,1.973232-2.158521,4.354175-2.15376,6.858896v4.434346c-1.974185.343916-3.598359,1.707773-4.310566,3.529805ZM29.218408,90.784333c-.652793,1.197041-1.90582,1.940859-3.270059,1.940859-2.055879,0-3.727852-1.672354-3.727852-3.728232,0-1.716343,1.171714-3.15085,2.752852-3.582744v3.567129c0,.538535.436465.975.975.975s.975-.436465.975-.975v-3.567319c1.581328.431895,2.753613,1.866592,2.753613,3.582935,0,.627656-.157676,1.243506-.458555,1.787373ZM74.350244,89.510739c-.027612.00457-2.546616.448652-5.972446.997471-.005522-.054272-.020757-.107021-.020757-.161865v-5.382305c0-3.105216,2.485585-5.787539,5.644336-5.787539h.025898c3.011868,0,5.346816,2.293056,5.641289,5.055527.000762.030469.003047.064746.006094.108164,0,2.803125-.216328,4.088525-5.324414,5.170547Z" style="stroke-width: 0px;"/></g></g></svg>