<?xml version="1.0" encoding="utf-8"?>
<svg xmlns="http://www.w3.org/2000/svg" version="1.1" viewBox="-5.0 -10.0 110.0 135.0" xmlns:bx="https://boxy-svg.com" width="110px" height="135px"><defs><bx:export><bx:file format="svg"/></bx:export></defs><g transform="matrix(1.115698, 0, 0, 1.163453, -6.317665, 1.43141)" style=""><path d="m69.66 71.012c-0.37891 0.37109-0.69141 0.67188-0.80859 0.78125-5.2305 4.5312-11.922 7.0195-18.852 7.0195-15.891 0-28.809-12.93-28.809-28.809 0-15.891 12.93-28.809 28.809-28.809 0.73828 0 1.4805 0.03125 2.2109 0.078126 1.0117 0.078124 2.0391 0.21094 3.0508 0.39062 0.32812 0.058594 0.66016 0.12891 0.98828 0.19922 1.7305 0.37891 3.4414-0.71094 3.8086-2.4414 0.37891-1.7305-0.71094-3.4414-2.4414-3.8086-0.39844-0.089843-0.80078-0.17188-1.2109-0.25-1.2305-0.23047-2.4805-0.39062-3.7188-0.48047-0.89062-0.070312-1.8008-0.10156-2.6914-0.10156-19.422 0-35.211 15.801-35.211 35.211 0.003906 19.406 15.793 35.219 35.215 35.219 8.4609 0 16.648-3.0508 23.039-8.5898 0.16016-0.14062 0.57813-0.53906 1.0898-1.0391 1.2617-1.2383 1.2891-3.2617 0.050782-4.5312-1.2305-1.25-3.2578-1.2695-4.5195-0.039062z"/><path d="m66.512 18.891c-1.5586-0.82812-3.5-0.23828-4.3281 1.3203-0.82812 1.5586-0.23828 3.5 1.3203 4.3281 9.4453 5.0195 15.305 14.781 15.305 25.461 0 5.1484-1.3789 10.211-3.9805 14.609-0.89844 1.5195-0.39062 3.4883 1.1289 4.3789 0.51172 0.30078 1.0703 0.44141 1.6211 0.44141 1.1016 0 2.1602-0.55859 2.7617-1.5703 3.1797-5.3906 4.8594-11.57 4.8594-17.871 0.011719-13.047-7.1484-24.969-18.688-31.098z"/></g></svg>