<?xml version="1.0" encoding="utf-8"?>
<svg xmlns="http://www.w3.org/2000/svg" version="1.1" viewBox="-5.0 -10.0 110.0 135.0" xmlns:bx="https://boxy-svg.com" width="110px" height="135px"><defs><bx:export><bx:file format="svg"/></bx:export></defs><path d="M 32.812 2.864 C 33.028 1.987 33.452 1.206 34.037 0.604 C 34.872 -0.256 36.012 -0.709 37.151 -0.745 C 37.046 -1.652 37.101 -2.56 37.345 -3.412 C 37.966 -5.644 39.834 -7.296 41.888 -7.434 C 42.904 -7.512 43.925 -7.172 44.766 -6.527 C 45.788 -8.097 47.401 -9.249 49.195 -9.51 C 51.329 -9.822 53.579 -8.896 55.037 -7.083 C 55.556 -6.438 55.477 -5.477 54.873 -4.927 C 54.27 -4.379 53.355 -4.457 52.837 -5.102 C 52.023 -6.109 50.741 -6.658 49.591 -6.486 C 48.017 -6.253 46.64 -4.701 46.526 -3.024 C 46.469 -2.213 45.894 -1.58 45.06 -1.605 C 44.293 -1.616 43.67 -2.26 43.637 -3.073 C 43.62 -3.478 43.361 -3.782 43.209 -3.932 C 42.886 -4.241 42.429 -4.416 42.064 -4.391 C 41.227 -4.332 40.386 -3.543 40.109 -2.554 C 39.828 -1.539 40.042 -0.285 40.691 0.794 C 41.074 1.438 40.951 2.286 40.397 2.777 C 39.849 3.265 39.038 3.253 38.502 2.739 C 37.857 2.131 36.662 2.148 36.047 2.786 C 35.844 3.002 35.686 3.287 35.607 3.622 C 35.437 4.314 34.849 4.768 34.206 4.768 C 34.089 4.768 33.964 4.755 33.846 4.72 C 33.073 4.512 32.611 3.676 32.807 2.858 L 32.812 2.864 Z M 52.966 -2.029 C 50.957 -1.646 49.276 -0.447 48.337 1.272 C 47.942 1.999 48.18 2.936 48.868 3.359 C 49.563 3.778 50.442 3.527 50.845 2.799 C 51.339 1.881 52.328 1.2 53.474 0.986 C 54.619 0.77 55.765 1.045 56.532 1.725 C 56.99 2.131 57.634 2.197 58.157 1.887 C 58.677 1.581 58.971 0.967 58.885 0.341 C 58.711 -1.002 58.987 -2.297 59.64 -3.203 C 60.297 -4.104 61.402 -4.6 62.305 -4.408 C 63.157 -4.229 63.897 -3.324 63.847 -2.505 C 63.807 -1.801 64.224 -1.162 64.856 -0.954 C 65.493 -0.739 66.177 -1.02 66.52 -1.622 C 66.769 -2.063 67.261 -2.398 67.825 -2.517 C 68.389 -2.643 68.966 -2.536 69.358 -2.231 C 69.753 -1.931 70.031 -1.389 70.099 -0.78 C 70.168 -0.172 70.02 0.419 69.703 0.813 C 69.274 1.344 69.242 2.113 69.625 2.685 C 70.009 3.259 70.709 3.48 71.324 3.23 C 71.639 3.098 72.052 3.134 72.423 3.319 C 72.797 3.503 73.085 3.82 73.191 4.166 C 73.299 4.507 73.247 4.942 73.057 5.324 C 72.865 5.706 72.553 5.997 72.226 6.098 C 71.458 6.332 71.014 7.174 71.234 7.984 C 71.414 8.652 71.99 9.094 72.622 9.094 C 72.752 9.094 72.886 9.077 73.017 9.034 C 74.105 8.708 75.049 7.878 75.613 6.749 C 76.177 5.628 76.29 4.326 75.929 3.193 C 75.574 2.059 74.744 1.099 73.655 0.557 C 73.429 0.442 73.191 0.353 72.955 0.275 C 73.017 -0.19 73.022 -0.667 72.966 -1.145 C 72.802 -2.601 72.103 -3.9 71.054 -4.707 C 70.002 -5.512 68.616 -5.805 67.248 -5.512 C 66.819 -5.422 66.414 -5.275 66.041 -5.083 C 65.353 -6.241 64.214 -7.124 62.858 -7.409 C 60.866 -7.816 58.649 -6.879 57.339 -5.059 C 56.691 -4.163 56.256 -3.072 56.063 -1.897 C 55.092 -2.182 54.027 -2.231 52.96 -2.029 L 52.966 -2.029 Z M 72.761 12.574 C 73.176 13.288 74.061 13.528 74.749 13.087 C 76.025 12.268 77.412 11.911 78.66 12.083 C 79.94 12.257 81.11 13.056 81.646 14.112 C 82.176 15.175 82.051 16.558 81.352 17.348 C 80.811 17.955 80.832 18.91 81.397 19.489 C 81.962 20.067 82.864 20.067 83.422 19.476 C 84.133 18.731 85.556 18.737 86.402 19.476 C 87.283 20.246 87.666 21.756 87.312 23.063 C 87.131 23.72 86.797 24.334 86.312 24.895 C 85.776 25.515 85.814 26.482 86.402 27.055 C 86.679 27.323 87.028 27.455 87.378 27.455 C 87.769 27.455 88.158 27.286 88.447 26.96 C 89.236 26.052 89.784 25.026 90.086 23.911 C 90.765 21.41 90.024 18.683 88.248 17.12 C 87.283 16.278 86.069 15.861 84.874 15.861 L 84.867 15.861 C 84.924 14.787 84.704 13.683 84.207 12.686 C 83.235 10.746 81.25 9.356 79.038 9.053 C 77.142 8.796 75.093 9.304 73.265 10.473 C 72.581 10.908 72.361 11.845 72.78 12.574 L 72.761 12.574 Z M 65.393 10.843 C 65.63 11.642 66.441 12.095 67.211 11.833 C 67.971 11.576 68.389 10.717 68.147 9.912 C 67.553 7.932 65.929 6.379 64.009 5.943 C 62.09 5.502 60.002 6.23 58.699 7.782 C 58.107 8.486 57.699 9.344 57.485 10.252 C 57.006 10.054 56.514 9.895 56.003 9.811 C 53.308 9.387 50.539 10.752 49.105 13.188 C 48.681 13.904 48.89 14.846 49.568 15.295 C 50.244 15.742 51.137 15.52 51.561 14.805 C 52.384 13.403 54.043 12.584 55.589 12.83 C 57.136 13.069 58.501 14.352 58.912 15.944 C 59.09 16.624 59.669 17.066 60.307 17.066 C 60.431 17.066 60.562 17.048 60.692 17.013 C 61.458 16.791 61.916 15.95 61.707 15.139 C 61.437 14.095 60.945 13.147 60.292 12.334 C 60.098 11.457 60.301 10.473 60.866 9.804 C 61.487 9.071 62.503 8.718 63.418 8.921 C 64.327 9.125 65.121 9.888 65.404 10.824 L 65.393 10.843 Z M 61.527 22.741 C 62.31 22.77 62.994 22.114 63.022 21.272 C 63.051 20.431 62.429 19.721 61.632 19.692 C 60.217 19.62 58.856 20.234 57.808 21.326 C 56.752 22.419 56.159 23.881 56.187 25.336 C 56.211 26.792 56.853 28.235 57.938 29.286 C 58.941 30.253 60.213 30.789 61.482 30.789 C 61.594 30.789 61.701 30.783 61.815 30.778 C 62.609 30.717 63.209 29.99 63.151 29.142 C 63.095 28.301 62.418 27.646 61.607 27.729 C 61.019 27.777 60.393 27.514 59.889 27.026 C 59.382 26.535 59.087 25.896 59.078 25.27 C 59.065 24.65 59.342 23.999 59.834 23.492 C 60.325 22.985 60.929 22.734 61.532 22.728 L 61.527 22.741 Z M 47.327 27.586 C 48.32 27.02 49.675 27.049 50.86 27.681 C 51.576 28.063 52.441 27.753 52.801 27.001 C 53.163 26.25 52.87 25.33 52.159 24.948 C 50.15 23.881 47.768 23.863 45.957 24.901 C 43.822 26.124 42.654 28.719 43.191 31.083 C 43.485 32.389 44.319 33.528 45.487 34.222 C 46.177 34.626 46.926 34.836 47.665 34.836 C 48.09 34.836 48.511 34.764 48.908 34.626 C 49.664 34.364 50.075 33.499 49.826 32.699 C 49.578 31.899 48.766 31.458 48.004 31.727 C 47.678 31.841 47.272 31.775 46.893 31.553 C 46.441 31.291 46.102 30.838 45.996 30.379 C 45.77 29.376 46.357 28.147 47.327 27.592 L 47.327 27.586 Z M 42.01 20.862 C 42.525 21.178 43.169 21.13 43.637 20.741 C 44.534 20.002 45.815 19.752 46.905 20.103 C 47.716 20.366 48.439 20.975 48.903 21.768 C 49.32 22.485 50.205 22.71 50.888 22.269 C 51.565 21.828 51.781 20.885 51.363 20.168 C 50.538 18.755 49.229 17.669 47.762 17.186 C 46.509 16.774 45.154 16.791 43.908 17.204 C 43.411 15.795 42.366 14.595 41.007 14.011 C 39.002 13.159 36.513 13.731 34.957 15.401 C 34.302 16.099 33.834 16.983 33.547 17.939 C 31.425 16.792 28.727 17.078 26.972 18.637 C 25.921 19.566 25.273 20.879 25.086 22.252 C 25.059 22.246 25.024 22.246 24.996 22.24 C 23.664 22.133 22.327 22.587 21.407 23.498 C 19.736 25.158 19.362 28.087 20.554 30.319 C 21.577 32.247 23.624 33.565 25.9 33.756 C 26.08 33.768 26.267 33.781 26.447 33.781 C 29.725 33.781 32.739 31.345 33.309 28.128 C 33.455 27.299 32.941 26.5 32.158 26.344 C 31.379 26.19 30.617 26.732 30.47 27.562 C 30.143 29.405 28.106 30.873 26.126 30.713 C 24.816 30.604 23.619 29.866 23.072 28.826 C 22.536 27.819 22.676 26.429 23.381 25.73 C 23.709 25.408 24.217 25.23 24.742 25.282 C 25.172 25.324 25.539 25.51 25.747 25.802 C 26.198 26.441 27.045 26.6 27.682 26.172 C 28.319 25.743 28.535 24.859 28.173 24.155 C 27.676 23.189 27.976 21.727 28.828 20.969 C 29.702 20.193 31.136 20.055 32.236 20.658 C 32.732 20.927 33.162 21.356 33.506 21.858 C 33.568 21.995 33.642 22.12 33.731 22.228 C 34.026 22.753 34.234 23.345 34.308 23.964 C 34.403 24.8 35.116 25.408 35.91 25.3 C 36.7 25.198 37.266 24.441 37.175 23.606 C 37.05 22.515 36.694 21.482 36.176 20.574 C 36.012 19.459 36.311 18.302 37.017 17.544 C 37.773 16.731 38.992 16.44 39.929 16.84 C 40.836 17.228 41.463 18.331 41.322 19.297 C 41.232 19.917 41.509 20.534 42.023 20.85 L 42.01 20.862 Z M 15.234 26.535 C 15.573 26.535 15.911 26.41 16.181 26.159 C 16.785 25.605 16.848 24.644 16.322 24.005 C 15.668 23.213 15.735 21.78 16.463 21.058 C 17.032 20.497 17.987 20.384 18.715 20.724 C 18.987 20.981 19.279 21.194 19.602 21.373 C 20.239 21.721 21.018 21.529 21.435 20.92 C 21.854 20.312 21.79 19.464 21.289 18.934 C 21.034 18.671 20.759 18.438 20.458 18.247 C 20.222 17.936 20.058 17.526 19.997 17.06 C 19.895 16.29 20.109 15.544 20.555 15.109 C 20.995 14.681 21.671 14.494 22.389 14.603 C 22.931 14.684 23.422 14.924 23.777 15.269 C 23.946 15.544 24.138 15.795 24.354 16.027 C 24.866 16.572 25.69 16.624 26.26 16.159 C 26.836 15.682 26.988 14.834 26.616 14.173 C 26.468 13.904 26.288 13.653 26.098 13.42 C 25.906 13.015 25.843 12.502 25.922 11.97 C 26.036 11.219 26.418 10.599 26.945 10.317 C 27.462 10.037 28.161 10.079 28.806 10.431 C 29.45 10.783 29.883 11.357 29.969 11.97 C 30.087 12.781 30.776 13.348 31.554 13.26 C 32.321 13.17 32.891 12.455 32.841 11.636 C 32.773 10.639 33.529 9.584 34.45 9.368 C 35.369 9.154 36.469 9.792 36.797 10.729 C 37.079 11.516 37.907 11.923 38.653 11.625 C 39.398 11.325 39.782 10.449 39.5 9.661 C 38.665 7.287 36.182 5.854 33.834 6.386 C 32.688 6.649 31.696 7.358 31 8.307 C 30.736 8.079 30.443 7.883 30.132 7.716 C 28.67 6.916 26.995 6.868 25.639 7.585 C 24.291 8.301 23.327 9.757 23.065 11.475 C 23.055 11.522 23.049 11.57 23.044 11.619 C 22.96 11.6 22.874 11.588 22.795 11.57 C 21.204 11.325 19.67 11.798 18.585 12.859 C 17.445 13.969 16.903 15.688 17.125 17.46 C 17.125 17.478 17.129 17.495 17.129 17.52 C 16.16 17.663 15.221 18.092 14.478 18.832 C 12.61 20.681 12.452 23.97 14.133 26.01 C 14.415 26.357 14.822 26.535 15.221 26.535 L 15.234 26.535 Z M 35.635 29.943 C 34.105 30.348 32.891 31.793 32.688 33.452 C 32.587 34.287 33.14 35.057 33.935 35.165 C 33.997 35.177 34.06 35.177 34.122 35.177 C 34.838 35.177 35.458 34.614 35.555 33.846 C 35.607 33.421 35.956 33.01 36.344 32.902 C 36.73 32.801 37.226 32.986 37.458 33.332 C 37.919 34.018 38.822 34.179 39.471 33.684 C 40.122 33.196 40.267 32.24 39.805 31.555 C 38.884 30.194 37.176 29.531 35.635 29.943 Z M 73.151 35.492 C 73.299 35.516 73.456 35.528 73.614 35.528 C 74.766 35.528 76.092 34.871 76.99 33.828 C 77.768 32.92 78.182 31.787 78.208 30.545 C 78.767 30.438 79.337 30.265 79.89 29.966 C 81.222 29.238 82.125 27.877 82.255 26.41 C 82.424 24.524 81.29 22.647 79.558 21.941 C 78.885 21.667 78.152 21.571 77.391 21.637 C 77.294 20.02 76.763 18.331 75.6 17.228 C 73.936 15.641 71.493 15.307 69.541 16.386 C 68.835 16.78 68.558 17.699 68.93 18.45 C 69.303 19.197 70.179 19.489 70.884 19.095 C 71.763 18.605 72.915 18.772 73.672 19.501 C 74.383 20.181 74.715 21.886 74.404 23.301 C 74.28 23.863 74.473 24.447 74.89 24.817 C 75.307 25.188 75.896 25.27 76.391 25.044 C 76.979 24.775 77.819 24.512 78.519 24.8 C 78.971 24.985 79.428 25.564 79.378 26.136 C 79.333 26.625 78.936 27.055 78.564 27.257 C 78.006 27.562 77.278 27.628 76.567 27.646 C 76.126 27.658 75.715 27.885 75.449 28.26 C 75.186 28.635 75.099 29.114 75.211 29.567 C 75.431 30.451 75.33 31.179 74.908 31.715 C 74.456 32.288 73.792 32.461 73.615 32.479 C 73 32.372 72.329 31.941 72.311 31.47 C 72.278 30.629 71.583 29.955 70.81 30.002 C 70.014 30.038 69.395 30.748 69.423 31.59 C 69.507 33.852 71.42 35.199 73.158 35.492 L 73.151 35.492 Z M 66.103 27.931 C 66.387 27.931 66.667 27.849 66.916 27.664 C 67.457 27.269 68.141 27.097 68.785 27.191 C 69.58 27.299 70.303 26.715 70.41 25.88 C 70.517 25.044 69.958 24.274 69.167 24.161 C 67.82 23.97 66.408 24.328 65.285 25.138 C 64.625 25.617 64.462 26.565 64.906 27.263 C 65.189 27.693 65.641 27.931 66.103 27.931 Z M 45.064 8.283 C 44.343 8.636 44.022 9.543 44.355 10.313 C 44.597 10.873 45.122 11.202 45.67 11.202 C 45.873 11.202 46.075 11.153 46.267 11.064 C 47.273 10.573 48.022 9.549 48.277 8.319 C 48.525 7.09 48.242 5.825 47.515 4.942 C 46.787 4.06 45.63 3.593 44.456 3.683 C 43.271 3.778 42.205 4.423 41.612 5.413 C 41.183 6.122 41.38 7.072 42.051 7.525 C 42.729 7.978 43.62 7.77 44.049 7.061 C 44.151 6.886 44.398 6.761 44.676 6.739 C 44.964 6.713 45.213 6.804 45.342 6.958 C 45.471 7.114 45.518 7.399 45.455 7.687 C 45.4 7.972 45.245 8.212 45.071 8.295 L 45.064 8.283 Z M 95.591 33.212 C 90.807 59.002 86.241 86.478 80.856 119.799 C 80.762 120.39 80.349 120.867 79.808 121.016 C 70.85 123.534 61.637 124.794 52.427 124.794 C 43.21 124.794 34 123.534 25.044 121.016 C 24.497 120.861 24.085 120.383 23.994 119.799 C 18.599 86.408 14.028 58.907 9.26 33.212 C 9.254 33.17 9.264 33.136 9.26 33.098 C 9.254 33.04 9.232 32.98 9.232 32.92 C 9.232 32.855 9.254 32.795 9.26 32.729 C 9.264 32.663 9.276 32.598 9.288 32.532 C 9.593 30.373 12.341 29.208 14.778 28.445 C 15.546 28.206 16.346 28.666 16.573 29.477 C 16.8 30.289 16.364 31.137 15.597 31.374 C 13.362 32.078 12.516 32.669 12.222 32.945 C 14.17 35.105 29.023 38.051 52.42 38.051 C 75.818 38.051 90.672 35.099 92.618 32.939 C 92.325 32.663 91.478 32.072 89.244 31.374 C 88.476 31.137 88.041 30.282 88.267 29.477 C 88.492 28.672 89.294 28.206 90.063 28.445 C 92.5 29.208 95.247 30.373 95.551 32.532 C 95.57 32.598 95.576 32.663 95.58 32.735 C 95.587 32.801 95.608 32.855 95.608 32.926 C 95.608 32.986 95.587 33.046 95.58 33.104 C 95.576 33.146 95.587 33.182 95.58 33.218 L 95.591 33.212 Z M 92.014 36.626 C 89.468 37.76 85.778 38.607 81.659 39.239 L 73.335 109.429 C 75.524 108.974 77.696 108.437 79.858 107.841 C 84.192 81.199 88.041 58.256 92.014 36.626 Z M 52.42 41.106 C 50.976 41.106 45.873 41.084 39.66 40.773 L 41.623 63.191 C 41.698 64.031 41.115 64.778 40.321 64.855 C 40.275 64.861 40.229 64.861 40.185 64.861 C 39.445 64.861 38.82 64.265 38.745 63.477 L 36.742 40.611 C 33.284 40.398 29.625 40.086 26.138 39.651 L 34.485 110.001 C 37.285 110.496 40.099 110.874 42.921 111.134 L 41.269 92.261 C 41.194 91.422 41.777 90.681 42.577 90.604 C 43.379 90.514 44.072 91.146 44.146 91.988 L 45.817 111.042 C 45.829 111.154 45.795 111.261 45.783 111.376 C 50.201 111.662 54.638 111.662 59.055 111.376 C 59.045 111.261 59.011 111.16 59.022 111.042 L 60.693 91.988 C 60.766 91.152 61.459 90.543 62.261 90.604 C 63.057 90.681 63.639 91.428 63.571 92.261 L 61.918 111.134 C 64.739 110.874 67.554 110.496 70.361 110.001 L 78.706 39.651 C 75.219 40.086 71.556 40.398 68.102 40.611 L 66.098 63.477 C 66.032 64.271 65.4 64.861 64.66 64.861 C 64.615 64.861 64.57 64.861 64.526 64.855 C 63.73 64.778 63.147 64.031 63.215 63.197 L 65.18 40.779 C 58.966 41.09 53.858 41.112 52.42 41.112 L 52.42 41.106 Z M 24.976 107.841 C 27.137 108.438 29.316 108.975 31.505 109.43 L 23.181 39.241 C 19.061 38.607 15.377 37.761 12.825 36.628 C 16.781 58.192 20.636 81.148 24.983 107.842 L 24.976 107.841 Z M 78.165 118.313 C 78.56 115.885 78.943 113.499 79.327 111.13 C 70.507 113.457 61.466 114.639 52.419 114.639 C 43.371 114.639 34.331 113.457 25.511 111.13 C 25.895 113.499 26.286 115.885 26.674 118.313 C 43.537 122.884 61.302 122.884 78.165 118.313 Z M 52.42 65.501 C 62.952 65.501 71.201 70.644 71.201 77.214 C 71.201 83.783 62.952 88.927 52.42 88.927 C 41.89 88.927 33.638 83.783 33.638 77.214 C 33.638 70.644 41.89 65.501 52.42 65.501 Z M 36.529 77.214 C 36.529 81.909 43.808 85.872 52.42 85.872 C 61.032 85.872 68.311 81.909 68.311 77.214 C 68.311 72.518 61.032 68.556 52.42 68.556 C 43.808 68.556 36.529 72.518 36.529 77.214 Z M 13.605 108.678 C 13.373 107.617 12.866 106.625 12.104 105.873 C 10.467 104.251 7.864 103.923 5.912 105.091 C 3.959 106.262 2.889 108.791 3.361 111.106 C 3.531 111.93 4.287 112.461 5.076 112.275 C 5.856 112.097 6.353 111.285 6.184 110.462 C 5.98 109.448 6.483 108.261 7.334 107.753 C 8.181 107.246 9.411 107.395 10.128 108.105 C 10.835 108.804 11.059 110.062 10.659 110.994 C 10.648 111.01 10.641 111.028 10.636 111.054 C 10.302 111.817 10.613 112.717 11.329 113.075 C 12.045 113.434 12.904 113.117 13.248 112.359 C 13.255 112.347 13.259 112.331 13.272 112.313 C 13.414 112.014 13.734 111.786 14.13 111.691 C 14.597 111.584 15.06 111.679 15.355 111.936 C 15.648 112.199 15.835 112.628 15.867 113.123 C 15.901 113.671 15.744 114.216 15.439 114.567 C 14.783 115.331 13.486 115.487 12.588 114.914 C 12.125 114.615 11.539 114.615 11.077 114.92 C 10.613 115.223 10.355 115.772 10.399 116.344 C 10.444 116.913 10.207 117.54 9.766 118.034 C 9.343 118.506 8.825 118.829 8.31 118.757 C 7.791 118.745 7.25 118.44 6.855 117.944 C 6.55 117.569 6.364 117.114 6.324 116.679 C 6.347 116.453 6.353 116.22 6.341 115.993 C 6.296 115.211 5.692 114.591 4.953 114.562 C 4.254 114.507 3.57 115.104 3.469 115.886 C 3.446 116.084 3.43 116.281 3.43 116.482 C 3.361 116.763 3.187 117.049 2.944 117.258 C 2.577 117.581 2.029 117.789 1.403 117.843 C 0.432 117.933 -0.498 117.627 -1.091 117.039 C -1.661 116.471 -1.904 115.577 -1.679 114.908 C -1.481 114.322 -0.809 113.893 -0.306 114.024 C 0.467 114.24 1.258 113.749 1.453 112.939 C 1.657 112.121 1.195 111.285 0.426 111.076 C -1.52 110.534 -3.687 111.792 -4.398 113.875 C -5.019 115.695 -4.483 117.861 -3.071 119.269 C -1.875 120.463 -0.155 121.058 1.646 120.893 C 2.764 120.792 3.762 120.414 4.553 119.8 C 4.586 119.841 4.615 119.884 4.648 119.925 C 5.585 121.083 6.888 121.769 8.231 121.811 L 8.339 121.811 C 9.625 121.811 10.9 121.202 11.862 120.129 C 12.357 119.568 12.741 118.924 12.978 118.244 C 14.659 118.511 16.442 117.932 17.572 116.614 C 18.407 115.64 18.831 114.288 18.734 112.907 C 18.644 111.59 18.085 110.384 17.194 109.591 C 16.24 108.744 14.902 108.409 13.598 108.684 L 13.605 108.678 Z M 104.56 112.287 C 104.328 113.44 103.622 114.418 102.68 115.014 C 102.855 115.712 102.906 116.435 102.798 117.139 C 102.46 119.264 100.688 120.993 98.679 121.173 C 98.572 121.184 98.458 121.184 98.352 121.184 C 97.189 121.184 96.072 120.654 95.281 119.824 C 94.802 120.11 94.3 120.325 93.775 120.438 C 93.426 120.522 93.065 120.57 92.713 120.57 C 91.697 120.57 90.694 120.225 89.91 119.58 C 89.092 118.91 88.488 117.944 88.121 116.71 C 87.555 114.717 87.838 112.729 88.87 111.37 C 89.474 110.563 90.36 110.056 91.308 109.865 C 91.343 108.69 91.647 107.628 92.172 106.936 C 93.458 105.264 95.695 104.543 97.511 105.204 C 98.486 105.57 99.261 106.314 99.735 107.222 C 100.518 107.026 101.349 107.066 102.098 107.383 C 103.904 108.111 104.998 110.266 104.57 112.275 L 104.56 112.287 Z M 99.531 115.014 C 99.503 114.974 99.498 114.926 99.474 114.882 C 99.424 114.794 99.385 114.698 99.351 114.597 C 99.317 114.501 99.3 114.406 99.282 114.31 C 99.277 114.262 99.254 114.222 99.249 114.168 C 99.249 114.119 99.267 114.078 99.272 114.037 C 99.277 113.928 99.294 113.827 99.317 113.72 C 99.339 113.631 99.369 113.542 99.407 113.458 C 99.448 113.368 99.498 113.291 99.553 113.213 C 99.61 113.129 99.672 113.051 99.751 112.985 C 99.786 112.957 99.802 112.913 99.842 112.885 C 99.88 112.855 99.927 112.849 99.966 112.826 C 100.051 112.772 100.135 112.729 100.226 112.694 C 100.322 112.657 100.413 112.634 100.514 112.622 C 100.558 112.616 100.597 112.592 100.643 112.587 C 101.14 112.562 101.648 112.133 101.743 111.644 C 101.857 111.1 101.523 110.444 101.043 110.246 C 100.649 110.08 100.153 110.2 99.808 110.522 C 99.797 110.54 99.774 110.546 99.757 110.557 C 99.672 110.647 99.57 110.713 99.463 110.779 C 99.407 110.814 99.369 110.857 99.305 110.88 C 99.137 110.958 98.95 111.004 98.753 111.004 C 97.95 111.004 97.307 110.33 97.307 109.489 C 97.307 109.418 97.313 109.335 97.319 109.263 C 97.369 108.869 97.053 108.297 96.553 108.105 C 95.875 107.854 94.938 108.196 94.413 108.875 C 94.125 109.251 93.962 110.976 94.797 112.265 C 95.247 112.963 95.079 113.911 94.419 114.388 C 94.17 114.567 93.887 114.657 93.607 114.657 C 93.142 114.657 92.692 114.424 92.409 113.989 C 92.177 113.631 91.997 113.248 91.84 112.861 C 91.562 112.913 91.286 113.069 91.124 113.291 C 90.603 113.977 90.655 115.044 90.875 115.821 C 90.999 116.238 91.241 116.823 91.665 117.169 C 92.043 117.48 92.618 117.593 93.142 117.468 C 93.808 117.318 94.3 116.883 94.599 116.548 C 94.632 116.513 94.678 116.494 94.711 116.465 C 94.785 116.393 94.864 116.341 94.948 116.285 C 95.033 116.232 95.118 116.197 95.209 116.16 C 95.253 116.143 95.288 116.113 95.339 116.101 C 95.383 116.09 95.428 116.101 95.472 116.095 C 95.57 116.084 95.666 116.084 95.763 116.09 C 95.852 116.095 95.937 116.107 96.026 116.131 C 96.117 116.155 96.202 116.191 96.286 116.238 C 96.371 116.281 96.45 116.335 96.523 116.393 C 96.562 116.422 96.609 116.435 96.641 116.471 C 96.675 116.506 96.693 116.554 96.727 116.591 C 96.79 116.667 96.845 116.745 96.89 116.835 C 96.941 116.923 96.98 117.013 97.009 117.114 C 97.026 117.163 97.053 117.199 97.064 117.252 C 97.172 117.753 97.838 118.19 98.43 118.141 C 99.142 118.076 99.818 117.408 99.942 116.65 C 100.022 116.119 99.876 115.522 99.526 115.026 L 99.531 115.014 Z" style=""/></svg>