<?xml version="1.0" encoding="utf-8"?>
<svg xmlns="http://www.w3.org/2000/svg" version="1.1" viewBox="-5.0 -10.0 110.0 135.0" xmlns:bx="https://boxy-svg.com" width="110px" height="135px"><defs><bx:export><bx:file format="svg"/></bx:export></defs><path d="M 9.335 24.799 C 5.405 24.799 2.19 28.01 2.19 31.944 L 2.19 88.393 C 2.19 92.322 5.401 95.525 9.335 95.525 L 89.163 95.525 C 93.092 95.525 96.307 92.326 96.307 88.393 L 96.307 31.944 C 96.307 28.014 93.096 24.799 89.163 24.799 L 9.335 24.799 Z M 9.335 27.74 L 17.12 27.74 L 17.12 41.744 L 5.136 41.744 L 5.136 31.944 C 5.136 29.592 6.987 27.741 9.339 27.741 L 9.335 27.74 Z M 20.062 27.74 L 78.449 27.74 L 78.449 92.576 L 20.058 92.58 L 20.058 77.115 L 20.058 77.037 L 20.058 60.17 L 20.058 60.092 L 20.058 43.287 L 20.058 43.209 L 20.062 27.74 Z M 81.398 27.74 L 89.171 27.74 C 91.523 27.74 93.37 29.592 93.37 31.944 L 93.37 41.744 L 81.397 41.744 L 81.398 27.74 Z M 40.816 43.595 C 38.398 43.654 36.148 45.611 36.148 48.275 L 36.148 72.041 C 36.148 75.596 40.144 77.893 43.218 76.1 L 63.503 64.268 C 66.585 62.471 66.585 57.862 63.503 56.061 L 43.214 44.217 C 42.444 43.768 41.62 43.576 40.812 43.592 L 40.816 43.595 Z M 5.136 44.685 L 17.12 44.685 L 17.12 58.689 L 5.136 58.689 L 5.136 44.685 Z M 81.398 44.685 L 93.371 44.685 L 93.371 58.689 L 81.398 58.689 L 81.398 44.685 Z M 40.808 46.49 C 41.112 46.494 41.433 46.576 41.741 46.756 L 62.018 58.6 C 63.276 59.334 63.276 60.99 62.018 61.725 L 41.737 73.565 C 40.503 74.283 39.089 73.475 39.089 72.045 L 39.089 48.279 C 39.089 47.209 39.886 46.482 40.804 46.494 L 40.808 46.49 Z M 5.136 61.631 L 17.12 61.631 L 17.12 75.635 L 5.136 75.635 L 5.136 61.631 Z M 81.398 61.631 L 93.371 61.631 L 93.371 75.635 L 81.398 75.635 L 81.398 61.631 Z M 5.132 78.58 L 17.116 78.58 L 17.116 92.58 L 9.33 92.58 C 6.979 92.58 5.127 90.744 5.127 88.392 L 5.132 78.58 Z M 81.394 78.58 L 93.367 78.58 L 93.367 88.392 C 93.367 90.744 91.519 92.58 89.167 92.58 L 81.394 92.58 L 81.394 78.58 Z" style="stroke-width: 1;"/></svg>