<?xml version="1.0" encoding="utf-8"?>
<svg xmlns="http://www.w3.org/2000/svg" viewBox="0 0 500 500" xmlns:bx="https://boxy-svg.com" width="500px" height="500px"><defs><bx:export><bx:file format="svg" path="avatar8.svg"/></bx:export></defs><title>avatar, man, people, user, profile, businessman_10</title><title>avatar, woman, people, user, profile, 70</title><g data-name="Queen copy" transform="matrix(6.21194, 0, 0, 5.582893, -60.149198, -29.470995)" style=""><g><circle class="cls-1" cx="59.553802" cy="39.220825" r="2.925" style="stroke-width: 0px;"/><circle class="cls-1" cx="40.443802" cy="39.220825" r="2.925" style="stroke-width: 0px;"/><path class="cls-1" d="M82.617122,31.834058c-.712969-3.497432-3.170654-6.327979-6.36397-7.641563,1.884922-1.999301.97677-5.242833-1.669116-5.984062v-8.557148c0-2.362548-2.667627-3.760416-4.619824-2.386465l-5.475234,3.884004c-.399141.282598-.94834.22623-1.278164-.130254l-4.299141-4.666289c-1.174086-1.267883-3.18907-1.246286-4.328848.04418l-3.797168,4.25877c-.380859.425039-1.084688.423516-1.4625.001523l-3.791836-4.260293c-1.15264-1.291531-3.162448-1.311912-4.33875-.041895l-4.288477,4.663242c-.333633.35877-.885879.415137-1.285781.131016l-5.475996-3.884004c-1.933352-1.371312-4.612207.01616-4.612207,2.386465v8.556387c-2.631915.734094-3.557304,3.938653-1.702441,5.950547-3.234067,1.29835-5.727935,4.148701-6.447188,7.676602-7.253121,2.354126-9.861741,11.369038-4.945078,17.233125-.505576,6.354402,4.522312,11.680957,10.785938,11.680957h9.079687c1.979326,2.729619,4.506709,4.806445,7.526543,6.185918v1.005469h-5.163691c-8.843169,0-16.301543,7.11678-16.301543,16.309922,0,3.888574.996328,5.834004,6.936211,7.091602.752578.131777,18.501387,3.243398,24.700254,3.243398s23.947676-3.111621,24.733008-3.250254c5.907129-1.250742,6.903457-3.196172,6.903457-7.084746,0-9.215463-7.483499-16.309922-16.301543-16.309922h-5.163691v-1.005469c3.019834-1.379473,5.547217-3.456299,7.526543-6.185918h9.079688c6.26681,0,11.284643-5.33218,10.785176-11.680195,4.930166-5.877658,2.296049-14.886862-4.944316-17.234648ZM29.014212,8.855288l5.475996,3.884004c1.197422.85084,2.851875.677168,3.847441-.399902l4.287715-4.661719c.440117-.473701,1.105579-.370949,1.450313.015996l3.792598,4.261055c1.165343,1.305823,3.2045,1.306729,4.371504-.000762l3.800977-4.262578c.392896-.443434,1.061119-.422823,1.438887-.015996l4.298379,4.665527c.994805,1.074785,2.643164,1.244648,3.839062.398379l5.472949-3.88248c.653695-.459046,1.544004.002444,1.544004.794473v8.407852H27.48011v-8.407852c0-.797387.89548-1.249159,1.534102-.795996ZM26.50511,23.394976c-2.248868,0-2.248868-3.38584,0-3.38584h47.103926c2.239939,0,2.239939,3.38584,0,3.38584H26.50511ZM70.709173,70.941841c-8.954385,10.952754-16.107305,16.748291-20.710371,16.748291s-11.755986-5.795537-20.710371-16.748291c1.705488-.694307,3.507144-1.051553,5.375449-1.051553h3.158848c0,5.108913,2.779022,9.166994,6.808242,11.146992-.170738,3.15866,2.353476,5.670234,5.367832,5.670234,3.016575,0,5.538473-2.513371,5.367832-5.670234,4.006798-1.968979,6.808242-6.012213,6.808242-11.146992h3.158848c1.868115,0,3.66939.356865,5.375449,1.051553ZM46.566497,81.332827c0-1.951587,1.598085-3.431543,3.432305-3.431543,1.83462,0,3.432305,1.480116,3.432305,3.431543,0,1.888301-1.539434,3.424688-3.432305,3.424688s-3.432305-1.536387-3.432305-3.424688ZM60.224876,69.890288c0,4.1815-2.160975,7.475102-5.346694,9.20499-.865313-1.8704-2.751519-3.143994-4.87938-3.143994-2.124814,0-4.008545,1.270166-4.877285,3.145137-3.162541-1.715968-5.348789-4.997025-5.348789-9.206133.76086,0,2.004844.164215,2.004844-.975v-1.203516c4.921861,1.659106,11.384261,1.705064,16.442461,0v1.203516c0,.538535.436465.975.975.975h1.029844ZM49.998802,67.020132c-12.201035,0-19.061362-7.655521-20.411777-19.022402-.057129-.478359-.492832-.843223-.974238-.859219-7.080307-.237516-7.073382-10.966498.036562-10.967988.515684-.019805,12.712324-.56291,19.338516-6.867656,1.127814-1.074472,2.893708-1.074843,4.022637.000762,6.62543,6.303984,18.82207,6.84709,19.37584,6.867656,7.043307,0,7.09536,10.730039-.007617,10.966465-.493594,0-.910254.369434-.968145.85998-1.317765,11.09205-8.034054,19.022402-20.411777,19.022402Z" style="stroke-width: 0px;"/></g></g></svg>