<?xml version="1.0" encoding="utf-8"?>
<svg xmlns="http://www.w3.org/2000/svg" viewBox="0 0 500 500" xmlns:bx="https://boxy-svg.com" width="500px" height="500px"><defs><bx:export><bx:file format="svg" path="avatar10.svg"/></bx:export></defs><title>avatar, man, people, user, profile, businessman_10</title><title>avatar, woman, people, user, profile, 70</title><g data-name="Hijab Woman" transform="matrix(7.873181, 0, 0, 5.590421, -143.415026, -29.156493)" style=""><g><circle class="cls-1" cx="59.554372" cy="39.290615" r="2.925" style="stroke-width: 0px;"/><circle class="cls-1" cx="40.444372" cy="39.290615" r="2.925" style="stroke-width: 0px;"/><path class="cls-1" d="M76.235822,72.201436c5.525889-4.984687,5.408013-9.04998,5.400015-9.183281,0-6.858757-4.734354-10.129622-4.866621-21.648047-.22044-19.318121-7.362844-36.025107-26.769844-36.025107-19.410619,0-26.54947,16.712743-26.769844,36.025107-.131176,11.423423-4.869557,14.832511-4.865098,21.600059-.009521.179004-.127397,4.246392,5.398491,9.23127-3.443159,3.094673-5.400015,7.446943-5.400015,12.118564,0,3.888193.99709,5.834004,6.936211,7.09084.752578.132539,18.501387,3.24416,24.700254,3.24416s23.947676-3.111621,24.733008-3.250635c5.906367-1.250361,6.903457-3.196172,6.903457-7.084365,0-4.671621-1.956855-9.023892-5.400015-12.118564ZM69.510036,34.292979c-8.105958-11.155519-30.846583-11.314441-39.058652.109687,6.126302-18.845805,32.825737-18.920501,39.058652-.109687ZM70.552067,44.016318c-.016758,1.873828-.051797,3.211787-.107402,4.092334-.116543,1.949238-1.681113,19.04373-20.445293,19.04373s-20.32875-17.094492-20.445293-19.046016c-.074854-1.190995-.107402-3.420079-.107402-4.229443,0-21.364301,41.105391-21.515909,41.105391.139395Z" style="stroke-width: 0px;"/></g></g></svg>