<?xml version="1.0" encoding="utf-8"?>
<svg xmlns="http://www.w3.org/2000/svg" viewBox="0 0 500 500" xmlns:bx="https://boxy-svg.com" width="500px" height="500px"><defs><bx:export><bx:file format="svg" path="avatar5.svg"/></bx:export></defs><title>avatar, man, people, user, profile, businessman_10</title><title>avatar, woman, people, user, profile, 70</title><g data-name="Elder Man" transform="matrix(7.883713, 0, 0, 5.625109, -145.253115, -30.788023)" style=""><g><path class="cls-1" d="M65.334922,67.887899h-5.163691v-1.012705c8.640366-3.947607,11.282769-12.547793,12.069434-17.90001,7.714053-.922642,8.497524-11.699489,2.056641-14.27061v-8.632368c0-8.640366-4.969263-15.460796-13.633623-18.725332-.01314-.006475-.026279-.012949-.03999-.019043-5.551754-2.48087-15.695629-2.48087-21.247383,0-.013711.006094-.026851.012568-.03999.019043-8.66436,3.264536-13.633623,10.084966-13.633623,18.725332v8.632368c-6.396455,2.552107-5.715291,13.293251,2.055879,14.263755.785332,5.351646,3.425449,13.957734,12.070195,17.906865v1.012705h-5.163691c-8.989043,0-16.301543,7.316689-16.301543,16.309922,0,3.888193.99709,5.834004,6.936211,7.09084.752578.132539,18.501387,3.24416,24.700254,3.24416s23.947676-3.111621,24.733008-3.250635c5.906367-1.250361,6.903457-3.196172,6.903457-7.084365,0-8.993232-7.3125-16.309922-16.301543-16.309922ZM50,68.917743c2.998315,0,5.754404-.426182,8.22123-1.257979v1.203135c0,3.458965-5.598633,6.868418-8.22123,8.129063-2.622598-1.260645-8.22123-4.672383-8.22123-8.16791v-1.164478c2.467017.831987,5.222915,1.258169,8.22123,1.258169ZM48.35145,78.3383l-3.992168,3.997881c-1.238364-1.674829-3.797739-5.718604-3.430972-10.080015,1.83022,2.861587,5.490088,5.062573,7.42314,6.082134ZM59.062168,72.252929c.366768,4.385596-2.199653,8.432988-3.420117,10.084585l-3.993691-3.999404c1.929434-1.018608,5.580352-3.217119,7.413809-6.085181ZM48.733452,80.715053l1.266548-1.268262,1.259502,1.261216c-.828215.652815-1.825916.561109-2.52605.007046ZM49.48584,83.076762c.377758.048866.649487.048873,1.028701.00019l.517017,2.105391c-.683833.103213-1.377568.103594-2.061973.000381l.516255-2.105962ZM52.901196,84.619623l-.560054-2.280776c.105498-.076553.213281-.149678.310972-.236323l1.659404,1.661689c-.435322.342964-.909873.627656-1.410322.85541ZM47.347314,82.103285c.098071.087407.205854.160723.311543.237466l-.559102,2.281538c-.505591-.231562-.982617-.517207-1.413179-.855981l1.660737-1.663022ZM72.347305,26.072206v2.692295c-.685356-1.091162-1.606846-2.204985-2.84959-3.249492-4.588594-3.877148-4.548223-7.706309-4.115566-9.644883.31021-1.400229.281646-2.684106-.072363-3.837349,4.529941,3.344897,7.03752,8.239321,7.03752,14.039429ZM34.690596,12.032587c-.354199,1.153623-.382573,2.437881-.071982,3.838682.431895,1.937432.472266,5.766592-4.114805,9.641836-1.243506,1.045269-2.165566,2.159854-2.851113,3.251396v-2.692295c0-5.800488,2.507578-10.694722,7.0379-14.039619ZM29.588223,47.942294c-.058652-.476836-.494355-.840176-.974238-.856553-6.538783-.218681-6.94056-9.241911-1.668926-10.74709.418945-.119971.69583-.507305.698115-.937676h.009521v-.544248c.072935-1.401182.620801-4.921465,4.107949-7.852559,5.573496-4.709326,5.186543-9.651357,4.761504-11.556035-.635273-2.865205.549961-4.934795,3.622734-6.326455,5.701263-2.423037,14.953446-2.118255,19.665293-.021709.015234.007236.029707.014473.044941.020947,3.072773,1.39166,4.258008,3.462012,3.623496,6.326074-.425801,1.90582-.812754,6.847852,4.762266,11.559082,3.494385,2.936616,4.036348,6.467944,4.106426,7.854463v.540439h.010283c.000381.431323.276123.817324.697354.937676,5.240474,1.496282,4.906351,10.527717-1.67502,10.746709-.492832,0-.907969.36791-.968145.856934-.847516,6.952944-4.741549,19.025449-20.411777,19.025449-15.682478,0-19.566593-12.091628-20.411777-19.025449Z" style="stroke-width: 0px;"/><path class="cls-1" d="M38.175078,32.975282h24.304922c1.28996,0,1.28996-1.95,0-1.95h-24.304922c-1.28996,0-1.28996,1.95,0,1.95Z" style="stroke-width: 0px;"/><path class="cls-1" d="M40.569922,28.75536h19.515234c1.28996,0,1.28996-1.95,0-1.95h-19.515234c-1.28996,0-1.28996,1.95,0,1.95Z" style="stroke-width: 0px;"/><path class="cls-1" d="M46.91123,45.533358v-1.310537h6.177539v1.310537c0,.538535.436465.975.975.975h10.982461c.538535,0,.975-.436465.975-.975v-4.563076c0-.538535-.436465-.975-.975-.975h-2.694199c.570943-1.93393-.896164-3.751846-2.797031-3.751846-1.896377,0-3.373032,1.817171-2.79627,3.751846h-2.694961c-.538535,0-.975.436465-.975.975v1.302539h-6.177539v-1.302539c0-.538535-.436465-.975-.975-.975h-2.694961c.574929-1.928525-.893157-3.751846-2.79627-3.751846-1.896377,0-3.373032,1.817171-2.79627,3.751846h-2.694961c-.538535,0-.975.436465-.975.975v4.563076c0,.538535.436465.975.975.975h10.982461c.538535,0,.975-.436465.975-.975ZM55.03877,41.945282h9.032461v2.613076h-9.032461v-2.613076ZM44.96123,44.558358h-9.032461v-2.613076h9.032461v2.613076Z" style="stroke-width: 0px;"/></g></g></svg>