<?xml version="1.0" encoding="utf-8"?>
<svg xmlns="http://www.w3.org/2000/svg" viewBox="0 0 500 500" xmlns:bx="https://boxy-svg.com" width="500px" height="500px"><defs><bx:export><bx:file format="svg" path="avatar9.svg"/></bx:export></defs><title>avatar, man, people, user, profile, businessman_10</title><title>avatar, woman, people, user, profile, 70</title><g data-name="Woman 14" transform="matrix(6.440903, 0, 0, 5.566326, -71.336305, -28.689766)" style=""><g><circle class="cls-1" cx="59.554956" cy="39.454416" r="2.925" style="stroke-width: 0px;"/><circle class="cls-1" cx="40.444956" cy="39.454416" r="2.925" style="stroke-width: 0px;"/><path class="cls-1" d="M86.087525,40.17843c4.230686-6.087272,2.405253-14.528228-4.02835-18.333809-.452589-7.291952-7.247946-12.805601-14.611289-11.476055-3.86385-6.085348-12.416037-6.978938-17.44793-1.817461-5.031776-5.161357-13.584169-4.267745-17.44793,1.817461-7.363489-1.329573-14.158707,4.184213-14.611289,11.476055-6.440372,3.809585-8.253693,12.254225-4.02835,18.333809-5.781687,7.49488-.923329,18.594811,8.636367,19.276055-.56643,4.076022.982997,8.144531,4.14832,10.810503-5.107705,2.865776-8.333965,8.27855-8.333965,14.218813,0,3.887813.996709,5.834004,6.936592,7.091602,5.401983.922952,19.276473,3.243398,24.700254,3.243398,5.168737,0,19.648215-2.322502,24.733008-3.250254,5.907129-1.250742,6.903838-3.196934,6.903838-7.084746,0-5.940645-3.226831-11.353799-8.335107-14.219575,3.252412-2.741766,4.699703-6.850223,4.149463-10.809741,9.551966-.680693,14.421505-11.776701,8.636367-19.276055ZM55.575547,85.567537l-4.628774-4.635059c1.57771-.776001,6.072803-3.197505,8.148486-6.478228-.210234,4.159746-2.16709,8.436797-3.519712,11.113286ZM44.427031,85.56487c-1.802607-3.64292-3.37689-7.55187-3.554561-11.163369,2.06064,3.307383,6.59458,5.750786,8.180669,6.530977l-4.626108,4.632393ZM49.999956,79.22718c-2.622217-1.259883-8.22123-4.669336-8.22123-8.128301v-3.153516c4.981016,1.67969,11.46193,1.683983,16.442461.002856v3.150659c0,3.458965-5.599014,6.868418-8.22123,8.128301ZM58.804282,65.651829c-2.541855,1.062598-5.50418,1.601895-8.804326,1.601895-3.296719,0-6.264375-.541582-8.820322-1.609512-8.679785-3.623496-10.988555-12.467051-11.591836-17.415937-.057891-.476836-.493975-.840176-.973857-.856172-3.701191-.12416-5.339268-3.014121-5.295088-5.646621.04418-2.648496,1.698252-5.320605,5.293564-5.320605.538535,0,.975-.436465.975-.975,0-1.227891,2.227646-9.851309,11.216309-9.851309h18.392461c8.988662,0,11.216309,8.623418,11.216309,9.851309,0,.538535.436465.975.975.975,3.49667,0,5.137412,2.834355,5.181973,5.467617.044941,2.648496-1.540576,5.375449-5.18959,5.498848-.492832,0-.90835.36791-.967764.856934-.604043,4.954219-2.915098,13.806152-11.607832,17.423555ZM33.356021,77.990149c-.671836-5.725459,3.384697-7.566914,4.163555-7.86627h1.893633c-2.066936,7.108047,2.861368,15.8785,6.574204,22.494126-1.487446-.145679-3.25292-.353247-5.334507-.627466-5.658809-8.471836-7.099028-12.292617-7.296885-14.000391ZM45.360327,87.388996l3.664629-3.66958v9.127295c-.216138-.00876-.457412-.024946-.691831-.039038-1.004326-1.775376-2.032456-3.624067-2.972798-5.418677ZM50.974956,83.719416l3.659868,3.664629c-1.129629,2.142715-2.252783,4.159556-2.967085,5.423438-.23499.014282-.476455.030469-.692783.039229v-9.127295ZM60.58023,70.123879h1.900107c.778857.299355,4.835391,2.140811,4.163555,7.867793-.197856,1.70644-1.638076,5.526841-7.297075,13.999248-2.08311.274219-3.849155.481787-5.336602.627275,3.795255-6.800977,8.595032-15.296201,6.570015-22.494316Z" style="stroke-width: 0px;"/></g></g></svg>