<?xml version="1.0" encoding="utf-8"?>
<svg xmlns="http://www.w3.org/2000/svg" viewBox="0 0 500 500" xmlns:bx="https://boxy-svg.com" width="500px" height="500px"><defs><bx:export><bx:file format="svg" path="avatar2.svg"/></bx:export></defs><title>avatar, man, people, user, profile, businessman_10</title><g data-name="Man 19 copy" transform="matrix(1, 0, 0, 1, 93.160036, 164.899722)"><g style="" transform="matrix(7.842203, 0, 0, 5.551151, -235.845813, -191.808124)"><circle class="cls-1" cx="59.55519" cy="39.531791" r="2.925" style="stroke-width: 0px;"/><circle class="cls-1" cx="40.44519" cy="39.531791" r="2.925" style="stroke-width: 0px;"/><path class="cls-1" d="M65.335112,68.251254h-5.163691v-.982617c8.674072-3.93123,11.334946-12.55998,12.131133-17.931621,8.560608-1.034717,8.119364-13.821434.060176-14.74916v-.635273c2.652463-.712885,3.658676-3.911724,1.920674-6.003105,7.329659-5.627175,2.372114-20.543939-8.701494-17.356523-2.891777-5.949436-10.822685-7.358052-15.581719-2.763516-4.75732-4.590525-12.689753-3.186446-15.581719,2.763516-11.050548-3.17102-16.039009,11.719308-8.700923,17.356143-1.731337,2.08192-.747058,5.283359,1.920103,6.002344v.643271c-8.262572.965541-8.348787,13.631097.175576,14.734688.680596,4.580977,3.158848,13.790537,12.015732,17.885537v1.036318h-5.163691c-8.905061,0-16.301924,7.13728-16.301924,16.309922,0,3.887812.996709,5.834004,6.936211,7.091602,4.959869.875271,19.372155,3.243398,24.700635,3.243398,5.915556,0,23.865926-3.068772,24.733008-3.250254,5.907129-1.250742,6.903457-3.196172,6.903457-7.084746,0-9.159306-7.383237-16.309922-16.301543-16.309922ZM58.221421,68.047113v3.129141c0,4.537559-3.688242,8.228848-8.22123,8.228848-4.533369,0-8.22123-3.691289-8.22123-8.228848v-3.16875c5.065713,1.71914,11.547465,1.674071,16.442461.039609ZM28.604653,28.541332h42.790693c2.386216,0,2.378599,3.603691-.007617,3.603691H28.604653c-2.377479,0-2.377479-3.603691,0-3.603691ZM29.643257,48.307172c-.05751-.477598-.493975-.841699-.974619-.857695-6.761211-.227655-6.990643-9.927894-1.030986-10.881533v4.789307c0,.538535.436465.975.975.975,4.133086,0,7.495693-3.362988,7.495693-7.496074v-.741152h27.783311v.741152c0,4.133086,3.362988,7.496074,7.496074,7.496074.538535,0,.975-.436465.975-.975v-4.796924c5.705363.904384,5.972747,10.65478-.920156,10.888389-.49207,0-.907207.367148-.967383.85541-1.423086,11.534952-8.225422,19.026973-20.420537,19.026973-12.128086,0-19.01863-7.46602-20.411396-19.023926ZM20.313345,84.561176c0-5.498467,3.047256-10.376133,7.870078-12.806016v18.411123c-1.541338-.257461-2.510054-.427705-2.51291-.427705-5.140078-1.089258-5.357168-2.374277-5.357168-5.177402ZM43.009517,92.369555c3.20671-5.187544,10.775568-5.188237,13.981157,0-3.164561.382383-5.512749.576621-6.990483.576621-1.476973,0-3.825352-.194238-6.990674-.576621ZM74.362241,89.731723c-.002476.000762-.981284.173291-2.545664.434561v-18.411504c4.821489,2.429121,7.870078,7.307168,7.870078,12.806396,0,2.803125-.216328,4.088145-5.324414,5.170547Z" style="stroke-width: 0px;"/></g></g></svg>