<?xml version="1.0" encoding="utf-8"?>
<svg xmlns="http://www.w3.org/2000/svg" viewBox="0 0 500 500" xmlns:bx="https://boxy-svg.com" width="500px" height="500px"><defs><bx:export><bx:file format="svg" path="avatar7.svg"/></bx:export></defs><title>avatar, man, people, user, profile, businessman_10</title><title>avatar, woman, people, user, profile, 70</title><g data-name="Nurse Woman copy" transform="matrix(6.582272, 0, 0, 5.622854, -79.282747, -30.803128)" style=""><g><circle class="cls-1" cx="59.650464" cy="38.938996" r="2.925" style="stroke-width: 0px;"/><circle class="cls-1" cx="40.540464" cy="38.938996" r="2.925" style="stroke-width: 0px;"/><path class="cls-1" d="M86.311382,53.420412c-2.549473-2.268398-6.825762-7.246992-6.825762-15.097266,0-14.892363-3.84668-24.877734-11.432637-29.680371-5.557722-3.518432-13.613142-4.27873-19.99207-.105117-14.955586-1.973613-24.144961,5.966543-27.339609,23.605664-2.407793,13.271426-5.816484,19.177793-7.633945,21.51627-1.117441,1.437363-1.336055,3.367559-.569004,5.038008,2.825596,6.150498,9.08959,9.624888,13.619531,11.417212-4.724751,2.959087-7.678887,8.178574-7.678887,13.845952,0,1.859355.160342,3.778887,1.944287,5.168262.256318,2.895674,2.691914,5.174355,5.652334,5.174355,1.840313,0,3.548276-.89502,4.609351-2.368564,6.824048,1.101064,15.491074,2.360947,19.430493,2.360947,3.604644,0,11.258584-1.074976,17.278447-2.017222.350962.412661.794473.751626,1.30749.971382.845959.358853,1.696648-.538993,1.213418-1.376426,2.897959-.47417,4.904897-.823037,4.935176-.82875,2.365518-.504067,3.933896-1.12144,4.975547-1.926006v.855791c0,.645938-.38543,1.227891-.982617,1.481543-1.170608.498859-.440785,2.301823.764766,1.794609,1.317012-.561387,2.167852-1.847168,2.167852-3.276152v-5.507227c0-7.78504-4.409069-12.28352-7.705356-14.348115,4.372837-1.745288,10.427549-5.083901,13.365688-10.889912.987949-1.957617.534727-4.346367-1.104492-5.808867ZM29.650171,47.738752c-.654745-10.350357,3.046937-17.672344,7.81752-21.485039,1.928315-1.540252,4.596174-1.765329,6.797578-.548438,5.193398,2.870918,15.079746,7.944727,22.941445,9.676875,1.987324.44332,3.424688,2.239453,3.418594,4.270195-.020566,4.427871-.05332,7.601953-.084551,8.088691-.097342,1.607556-1.417265,19.052109-20.445293,19.052109-19.03731,0-20.35002-17.479358-20.445293-19.054395ZM41.874233,67.49945c4.907765,1.627758,11.316863,1.696788,16.442461-.001143v1.127534c0,3.521426-5.397539,10.379941-8.22123,13.588301-2.823691-3.208359-8.22123-10.068398-8.22123-13.604297v-1.110396ZM20.779194,86.550988c-.265649-.605186-.370195-1.405371-.370195-2.590225,0-5.019536,2.632881-9.638218,6.835283-12.235869-1.389565,1.973613-2.168423,4.360459-2.163662,6.877178v4.434727c-1.964092.342964-3.584077,1.697681-4.301426,3.514189ZM26.05562,92.35338c-2.055879,0-3.727852-1.672734-3.727852-3.740801.005142-1.709678,1.176284-3.138472,2.752852-3.569795v3.566748c0,.538535.436465.975.975.975s.975-.436465.975-.975v-3.566938c1.581328.431704,2.753613,1.86583,2.753613,3.582173,0,2.108559-1.721302,3.728613-3.728613,3.728613ZM31.53771,90.100597c.127397-.477026.196523-.972905.196523-1.47583,0-2.797793-2.036074-5.123701-4.703613-5.587969v-4.43625c-.006855-3.684814,1.993989-7.032568,5.228437-8.780142,1.679452-.312893,2.309101-.235562,7.749917-.235562.873882,5.400776,8.458315,13.760068,9.369712,14.748398.386463.418271,1.047091.418271,1.433555,0,.910635-.987568,8.483643-9.333911,9.367808-14.748398,5.236001,0,6.041081-.079183,7.740205.234229,2.704292,1.455454,4.584023,4.119756,5.086567,7.123022-3.652061.557007-6.49251,3.810117-6.49251,7.650132v5.382305c0,.154058.010854.307734.03085.459697-8.048701,1.250742-13.726934,1.911533-16.449697,1.911533-2.938521,0-9.508154-.796377-18.557754-2.245166ZM74.4598,89.130548c-.002856.000762-2.512529.436655-5.975684.996709-.005142-.051035-.019805-.101118-.019805-.152725v-5.382305c0-5.080109,6.015576-7.680122,9.616699-4.190977,1.002323.974722,1.591935,2.224468,1.700918,3.559512,0,2.797793-.216328,4.081289-5.322129,5.169785ZM78.610405,78.315475c-1.066025-.776953-2.305532-1.262739-3.619307-1.408989-.267363-1.884492-.995566-3.663867-2.07854-5.196064,2.558613,1.572759,4.536987,3.896953,5.697847,6.605054Z" style="stroke-width: 0px;"/></g></g></svg>