<?xml version="1.0" encoding="utf-8"?>
<svg xmlns="http://www.w3.org/2000/svg" viewBox="0 0 500 500" xmlns:bx="https://boxy-svg.com" width="500px" height="500px"><defs><bx:export><bx:file format="svg" path="avatar6.svg"/></bx:export></defs><title>avatar, man, people, user, profile, businessman_10</title><title>avatar, woman, people, user, profile, 70</title><g transform="matrix(7.720834, 0, 0, 5.494076, -135.548754, -24.298067)" style=""><path d="M78.276,73.741V40.61936c0-37.47543-19.54167-37.876-28.27754-34.89238C48.33421,5.16486,21.724-3.49418,21.724,40.61936v33.1241a16.65128,16.65128,0,0,0-4.176,11.04992c0,3.98311,1.02285,5.97784,7.08379,7.26817l.03418.00664c5.13979.84314,19.55214,3.32519,25.334,3.32519,5.53494,0,19.89336-2.39947,25.36816-3.33183,6.06094-1.29033,7.08379-3.28506,7.08379-7.26817A16.654,16.654,0,0,0,78.276,73.741ZM50,67.18538c-19.52276,0-20.87263-17.88295-20.97168-19.53438-.057-.942-.09375-2.39521-.10625-4.20361A15.04805,15.04805,0,0,1,39.88906,28.884c4.55879-1.28379,7.742-2.73447,9.45977-4.31064a.96868.96868,0,0,1,1.29941-.00079c1.72364,1.57989,4.90469,3.03047,9.45489,4.31143a15.05751,15.05751,0,0,1,10.9748,14.56846c-.0125,1.80664-.04922,3.2584-.10625,4.199C70.87421,49.27615,69.52712,67.18538,50,67.18538Zm-8.43594.73083A26.79789,26.79789,0,0,0,50,69.18538a26.78171,26.78171,0,0,0,8.43594-1.26909v3.15112c0,3.545-5.74668,7.0417-8.43633,8.3333-2.69043-1.28955-8.43555-4.78164-8.43555-8.3333Zm-22.016,16.87717a14.71789,14.71789,0,0,1,14.726-14.726h.85769c-.61218,3.839-.87375,5.31885-4.93679,10.34072-3.22348,3.98042-4.11972,7.40327-4.19389,9.86172C19.66194,89.18225,19.54805,87.63151,19.54805,84.79338Zm54.42231,5.48111c-.07451-2.45957-.9709-5.88491-4.195-9.86607-4.06348-5.02226-4.32512-6.50278-4.93572-10.341H65.726a14.71866,14.71866,0,0,1,14.726,14.726C80.452,87.62809,80.34707,89.1828,73.97036,90.27449Z"/><path d="M40.2,34.01538a3.175,3.175,0,1,0,3.174,3.176A3.17607,3.17607,0,0,0,40.2,34.01538Z"/><path d="M62.976,37.19138a3.175,3.175,0,1,0-3.174,3.174A3.17436,3.17436,0,0,0,62.976,37.19138Z"/></g></svg>